<svg xmlns="http://www.w3.org/2000/svg" viewBox="0 0 512 512" width="512" height="512">
  <defs>
    <linearGradient id="g" x1="0" y1="512" x2="512" y2="0" gradientUnits="userSpaceOnUse">
      <stop stop-color="#d4af37"/><stop offset="0.55" stop-color="#f4d97b"/><stop offset="1" stop-color="#d4af37"/>
    </linearGradient>
    <linearGradient id="bg" x1="0" y1="0" x2="512" y2="512" gradientUnits="userSpaceOnUse">
      <stop stop-color="#141018"/><stop offset="1" stop-color="#07060a"/>
    </linearGradient>
  </defs>
  <rect width="512" height="512" rx="112" fill="url(#bg)"/>
  <g transform="translate(106, 403) scale(0.0495, -0.0495)">
    <path fill="url(#g)" d="M3886 5808 c17 -18 111 -122 209 -232 162 -180 176 -199 159 -210
-102 -60 -369 -202 -404 -215 -40 -14 -194 -17 -1410 -21 -1199 -5 -1371 -8
-1415 -21 -57 -18 -127 -52 -168 -83 -26 -19 -305 -375 -635 -809 l-122 -162
1742 -5 c1743 -5 1743 -5 1816 -32 328 -119 468 -481 306 -789 -45 -86 -147
-185 -236 -228 -128 -63 -63 -61 -1620 -61 l-1418 0 0 -1425 0 -1425 550 0
550 0 0 920 0 920 404 0 404 0 214 -262 c118 -145 288 -355 379 -467 90 -112
274 -339 409 -505 135 -165 301 -370 369 -454 l123 -152 664 0 c365 0 664 2
664 5 0 3 -57 73 -128 157 -70 84 -227 275 -348 423 -121 149 -340 415 -485
591 -517 630 -611 745 -608 748 2 2 47 13 99 25 651 147 1120 783 1051 1424
-33 304 -193 600 -423 783 -37 30 -37 30 60 82 409 220 374 204 395 184 10 -9
112 -119 225 -244 114 -126 209 -228 213 -228 4 0 29 82 57 183 244 876 383
1384 412 1497 11 47 23 93 26 103 5 16 -50 17 -1052 17 -1058 0 -1058 0 -1028
-32z"/>
  </g>
</svg>